<?xml version="1.0" encoding="UTF-8"?>
<svg width="129px" height="33px" viewBox="0 0 129 33" version="1.1" xmlns="http://www.w3.org/2000/svg" xmlns:xlink="http://www.w3.org/1999/xlink">
    <!-- Generator: Sketch 43.2 (39069) - http://www.bohemiancoding.com/sketch -->
    <title>logo-locate-productions</title>
    <desc>Created with Sketch.</desc>
    <defs></defs>
    <g id="Symbols" stroke="none" stroke-width="1" fill="none" fill-rule="evenodd">
        <g id="header-smartphone" transform="translate(-20.000000, -22.000000)" fill="#1D1C1B">
            <g id="logo-locate-productions" transform="translate(20.000000, 22.000000)">
                <g id="productions" transform="translate(25.448980, 24.571429)">
                    <path d="M4.55390687,4.19607823 C6.24138139,4.19607823 6.37647761,4.17168335 6.65403892,3.93109936 C6.86364274,3.7292107 6.93733159,3.46086702 6.93733159,2.75341551 C6.93733159,1.98371499 6.88411187,1.73892498 6.6777831,1.56816083 C6.39203414,1.34103608 6.29296358,1.32337082 4.55390687,1.28719911 L1.08561862,1.28719911 L1.08561862,4.19607823 L4.55390687,4.19607823 Z M0.15959548,0.419077865 L4.55390687,0.419077865 C6.89393704,0.473756044 6.89393704,0.473756044 7.3221511,0.816125565 C7.7167958,1.13998862 7.88546138,1.70191206 7.88546138,2.71892619 C7.88546138,3.72332228 7.74053998,4.25916843 7.36390812,4.59733194 C6.9930076,4.94979589 6.68597075,5.03728098 5.77386662,5.05915225 C5.64613929,5.06756428 5.24166941,5.06756428 4.55390687,5.06756428 L1.08561862,5.06756428 L1.08561862,7.87718148 L0.15959548,7.87718148 L0.15959548,0.419077865 Z" id="Fill-1"></path>
                    <path d="M14.1200288,4.13281978 L14.9527128,4.13281978 C16.0670518,4.13281978 16.4911721,4.00748057 16.6819443,3.62978053 C16.7670959,3.46069878 16.8227719,3.03252658 16.8227719,2.64977933 C16.8227719,2.12402761 16.7056885,1.71267946 16.4911721,1.55621575 C16.2103357,1.32993221 15.7993157,1.28703087 14.1200288,1.28703087 L10.7196981,1.28703087 L10.7196981,4.13281978 L14.1200288,4.13281978 Z M9.79531246,0.417227219 L14.1200288,0.417227219 C15.8689107,0.434892477 15.8803734,0.434892477 16.3609884,0.508918319 C16.9193861,0.586308972 17.3402313,0.878206328 17.5580228,1.32993221 C17.7127693,1.67650774 17.7782705,2.04579575 17.7782705,2.66660338 C17.7782705,4.03944627 17.5424662,4.42892315 16.6303621,4.63838263 C16.9635994,4.70147284 17.1617405,4.8116704 17.3402313,5.01103545 C17.6055111,5.31470965 17.6497244,5.53678718 17.6497244,6.81289175 L17.6497244,7.87785444 L16.7253388,7.87785444 L16.7253388,7.15862608 C16.7253388,6.19713134 16.7253388,6.18871931 16.6819443,5.89345714 C16.6303621,5.41060676 16.376545,5.13973948 15.9401433,5.06823724 C15.6134561,5.01103545 15.6134561,5.01103545 14.1200288,5.00094102 L10.7196981,5.00094102 L10.7196981,7.87785444 L9.79531246,7.87785444 L9.79531246,0.417227219 Z" id="Fill-3"></path>
                    <path d="M21.057506,1.66178669 C20.8020513,1.90573549 20.7005245,2.60477498 20.7005245,4.03902567 C20.7005245,5.69535389 20.7742133,6.34308001 20.9920048,6.59796445 C21.1745894,6.81415356 21.4603383,6.8873382 22.2340712,6.94790479 C22.6098843,6.97061727 23.7758055,7.00342418 24.2179386,7.00342418 C25.2373009,7.00342418 26.1993497,6.94790479 26.6693208,6.8587373 C27.0754282,6.78134665 27.2940385,6.54076266 27.3767337,6.10081362 C27.434866,5.69535389 27.4921796,4.88864045 27.4921796,4.19801299 C27.4921796,3.35933385 27.448785,2.46177051 27.3890152,2.12444821 C27.323514,1.70216442 27.0754282,1.47419848 26.5997258,1.40017264 C26.0724412,1.30932274 25.5353314,1.28745147 23.760249,1.28745147 C22.0351113,1.28745147 21.3252421,1.38503099 21.057506,1.66178669 M27.870449,0.993030504 C28.1643856,1.2967047 28.2929317,1.67608714 28.3641642,2.47438855 C28.4059212,2.8554534 28.4362155,3.60328265 28.4362155,4.17109451 C28.4362155,6.00491651 28.2929317,6.84611926 27.9064746,7.29448033 C27.4979109,7.74620621 26.7307282,7.8976227 24.6052144,7.8976227 C22.7507119,7.8976227 21.5651402,7.84042092 21.0460433,7.71844652 C20.4786392,7.58133047 20.0365061,7.11278053 19.9095975,6.51047936 C19.796608,6.02342297 19.7532134,5.32606589 19.7532134,4.11893993 C19.7532134,2.11351257 19.9235165,1.32194078 20.4286945,0.893768579 C20.7840385,0.618695278 21.1393825,0.519433353 22.0866935,0.452137133 C22.5034448,0.431107064 23.7012979,0.389888129 24.3014526,0.389888129 C26.6734146,0.389888129 27.4266784,0.519433353 27.870449,0.993030504" id="Fill-5"></path>
                    <path d="M35.4162685,7.00224649 C36.7565867,7.00224649 36.7967061,7.00224649 37.1831632,6.90298457 C37.9306956,6.70866673 38.2360949,5.9036357 38.2360949,4.09336737 C38.2360949,2.942602 38.089536,2.1476654 37.8160685,1.780901 C37.5892706,1.48984485 37.2642209,1.35525241 36.6280406,1.30982746 C36.4438184,1.28795619 36.1466068,1.28795619 35.3630487,1.28795619 L31.5181286,1.28795619 L31.5181286,7.00224649 L35.4162685,7.00224649 Z M30.5921055,0.418152542 L35.3826991,0.418152542 C37.5245882,0.418152542 38.0559666,0.544332955 38.573426,1.13149248 C39.036847,1.66060901 39.1801308,2.38404338 39.1801308,4.14047473 C39.1801308,5.79427934 38.9656144,6.73558522 38.4465175,7.25965453 C37.9405207,7.76185258 37.4115986,7.87625615 35.4522941,7.87625615 L30.5921055,7.87625615 L30.5921055,0.418152542 Z" id="Fill-7"></path>
                    <path d="M42.1802493,0.418068422 L42.1802493,4.08234762 L42.1802493,5.06823724 C42.1802493,6.48902869 42.2596695,6.70942381 42.849999,6.87009354 C43.205343,6.95673742 43.9692507,7.00216237 45.1466347,7.00216237 C47.3695815,7.00216237 48.0516126,6.91467729 48.3037922,6.59670264 C48.496202,6.35275385 48.5060272,6.22993824 48.5215837,4.08234762 L48.5215837,0.418068422 L49.454157,0.418068422 L49.454157,4.08234762 C49.4377817,5.62679587 49.4377817,5.68231525 49.3976622,6.14077075 C49.3247921,7.05095213 48.9006719,7.58343347 48.1367642,7.73989719 C47.6708869,7.82569987 46.4894091,7.8972021 45.3570572,7.8972021 C43.9176685,7.8972021 42.9801827,7.84168272 42.505299,7.73989719 C41.8560184,7.59689272 41.4130666,7.03917529 41.3295525,6.27536319 C41.272239,5.8185901 41.2640514,5.68231525 41.2542262,4.08234762 L41.2542262,0.418068422 L42.1802493,0.418068422 Z" id="Fill-9"></path>
                    <path d="M59.6373821,5.32640237 C59.5915312,6.76065306 59.5325801,7.03824997 59.2099868,7.37473107 C58.8046981,7.78355561 58.1529612,7.89795918 56.0037033,7.89795918 C53.2706659,7.89795918 52.5411464,7.78355561 52.082638,7.30659365 C51.6879933,6.88683347 51.5373406,6.06413718 51.5373406,4.25891607 C51.5373406,2.19123971 51.7043686,1.30965922 52.1858024,0.893263857 C52.521496,0.618190557 52.915322,0.518928632 53.9551534,0.449950006 C54.3948302,0.417143099 55.3069343,0.391065813 55.8587819,0.391065813 C57.9998522,0.391065813 58.7334656,0.543323512 59.1854238,1.03037991 C59.4924607,1.3660198 59.5325801,1.60239778 59.5579619,2.88859679 L58.6941649,2.88859679 L58.6941649,2.62950634 C58.6818834,1.89429513 58.578719,1.66548798 58.1824368,1.49892984 C57.8418306,1.3660198 57.0279782,1.28694675 55.8186624,1.28694675 C53.9911791,1.28694675 53.1453949,1.38452626 52.862921,1.62511025 C52.6025538,1.85980582 52.4715514,2.57482816 52.4715514,3.8702804 C52.4715514,4.48519961 52.5411464,5.68138993 52.5829034,6.05151914 C52.6639611,6.62269581 52.8981279,6.85655018 53.479451,6.91375196 C53.9346843,6.96843014 54.8803578,7.00123705 55.729417,7.00123705 C56.4171796,7.00123705 57.620764,6.94655887 57.8950503,6.90365753 C58.5893629,6.78925395 58.7334656,6.5898889 58.7334656,5.65951866 L58.7432907,5.32640237 L59.6373821,5.32640237 Z" id="Fill-11"></path>
                    <polygon id="Fill-13" points="61.130973 0.418909624 61.130973 1.28787207 64.6205492 1.28787207 64.6205492 7.87701324 65.5449348 7.87701324 65.5449348 1.28787207 69.0083105 1.28787207 69.0083105 0.418909624"></polygon>
                    <polygon id="Fill-15" points="70.7815915 7.87861152 71.7051584 7.87861152 71.7051584 0.418825504 70.7815915 0.418825504"></polygon>
                    <path d="M75.1611652,1.66178669 C74.9130794,1.90573549 74.809915,2.60477498 74.809915,4.03902567 C74.809915,5.69535389 74.8852414,6.34308001 75.1013953,6.59796445 C75.2913488,6.81415356 75.5730039,6.8873382 76.3401867,6.94790479 C76.7135435,6.97061727 77.8835586,7.00342418 78.331423,7.00342418 C79.348329,7.00342418 80.3046465,6.94790479 80.7737988,6.8587373 C81.1774499,6.78134665 81.4009727,6.54076266 81.4803929,6.10081362 C81.5434378,5.69535389 81.5991138,4.88864045 81.5991138,4.19801299 C81.5991138,3.35933385 81.5540817,2.46177051 81.4918556,2.12444821 C81.4369984,1.70216442 81.1774499,1.47419848 80.7107539,1.40017264 C80.1818317,1.30932274 79.6520908,1.28745147 77.8737334,1.28745147 C76.1379517,1.28745147 75.4321764,1.38503099 75.1611652,1.66178669 M81.9839333,0.993030504 C82.2754137,1.2967047 82.3982284,1.67608714 82.4743735,2.47438855 C82.5120367,2.8554534 82.5472436,3.60328265 82.5472436,4.17109451 C82.5472436,6.00491651 82.3982284,6.84611926 82.0158652,7.29448033 C81.6113953,7.74620621 80.8384812,7.8976227 78.7121487,7.8976227 C76.8560086,7.8976227 75.6745308,7.84042092 75.154615,7.71844652 C74.5921235,7.58133047 74.1434404,7.11278053 74.0206256,6.51047936 C73.9059985,6.02342297 73.8617852,5.32606589 73.8617852,4.11893993 C73.8617852,2.11351257 74.0288133,1.32194078 74.5421789,0.893768579 C74.893429,0.618695278 75.2446792,0.519433353 76.1944465,0.452137133 C76.6120166,0.431107064 77.8098697,0.389888129 78.414937,0.389888129 C80.7844427,0.389888129 81.5360689,0.519433353 81.9839333,0.993030504" id="Fill-17"></path>
                    <polygon id="Fill-18" points="92.5303625 0.418909624 92.5303625 6.95757863 92.3101148 6.95757863 86.2447042 0.418909624 84.702151 0.418909624 84.702151 7.87701324 85.6208053 7.87701324 85.6208053 1.34339145 85.8361405 1.34339145 91.8859945 7.87701324 93.4572045 7.87701324 93.4572045 0.418909624"></polygon>
                    <path d="M96.454621,5.54906874 L96.454621,5.70721485 C96.4783652,6.56355926 96.5389538,6.74525905 96.8910227,6.88742232 C97.1644902,7.0035083 97.9734299,7.06071008 99.387437,7.06071008 C100.297904,7.06071008 101.228021,6.99341386 101.624303,6.88742232 C102.066436,6.7898428 102.288321,6.4230784 102.288321,5.7829231 C102.288321,5.1402442 102.151587,4.84161722 101.787237,4.70954839 C101.440081,4.58505038 101.440081,4.58505038 98.0471188,4.58505038 C96.2171792,4.58505038 95.535148,4.03322137 95.535148,2.50727958 C95.535148,1.83768219 95.7193701,1.34221377 96.0607951,1.04526919 C96.4194141,0.727294554 96.782127,0.60700256 97.5714164,0.509423041 C98.0749568,0.435397198 99.0206303,0.390813452 99.6805548,0.390813452 C101.243577,0.390813452 102.014854,0.552324381 102.49465,0.963672527 C102.890932,1.29678882 103.006378,1.66607683 103.014566,2.62925398 L102.088542,2.62925398 L102.088542,2.51737401 C102.088542,1.78636882 101.982922,1.60551023 101.507219,1.43558727 C101.164157,1.30940686 100.518151,1.24211064 99.6437104,1.24211064 C97.0179313,1.24211064 96.4865528,1.45409373 96.4865528,2.51737401 C96.4865528,3.20211305 96.6093676,3.42839659 97.0777011,3.56887745 C97.4027508,3.66056855 97.9455919,3.71777034 98.7610818,3.72197636 C99.2687161,3.72197636 99.2687161,3.72197636 101.120762,3.72954718 C102.127843,3.72954718 102.610096,3.919659 102.928595,4.41849224 C103.134924,4.72973725 103.232357,5.15117983 103.232357,5.70721485 C103.232357,6.64767953 102.972809,7.2171738 102.417686,7.51495957 C101.899408,7.78330325 100.892327,7.89770682 98.798745,7.89770682 C97.2168911,7.89770682 96.6093676,7.81022174 96.1852473,7.52589521 C95.7054511,7.20539696 95.5474294,6.81255527 95.5474294,5.88302623 C95.5474294,5.86283736 95.5474294,5.68113757 95.5588922,5.54906874 L96.454621,5.54906874 Z" id="Fill-19"></path>
                </g>
                <g id="locate" transform="translate(32.469388, 0.000000)">
                    <path d="M16.7261669,12.2920892 C16.5960787,12.9638448 16.2854932,13.2785411 15.6236697,13.3995781 C14.6707739,13.5698945 12.6600987,13.6848797 10.5201485,13.6848797 L6.32399214,13.5698945 C4.70927282,13.4609612 4.28404713,13.303613 4.03200132,13.0373315 C3.63198021,12.5998691 3.54742291,10.8197601 3.54742291,8.29354423 C3.54742291,7.34426804 3.54742291,4.47223206 4.138511,3.93188815 L4.1417632,3.9258363 C4.70927282,3.40018974 7.07362518,3.32670296 9.54692639,3.32670296 C13.2332997,3.32670296 14.4081584,3.37252413 15.5057773,3.54197598 C16.4269641,3.68894952 16.6668142,4.05984159 16.7521845,4.56992624 C16.8700769,5.19413153 16.9603256,6.91718021 16.9603256,8.60305323 C16.9603256,9.90506593 16.8578812,11.4923802 16.7261669,12.2920892 M18.6278932,1.89068497 C17.5611703,0.826423598 15.9301899,0.552361164 10.6949544,0.552361164 L5.95974528,0.656971746 C3.87183026,0.795299788 3.02788331,1.02094741 2.18068414,1.6468818 C0.932650826,2.61258444 0.540760234,4.2664691 0.540760234,8.44829873 C0.540760234,10.9606818 0.637513305,12.3284003 0.885493866,13.3260913 C1.190388,14.687758 2.28312857,15.7822786 3.67344582,16.0926522 C4.80196063,16.339049 7.24517895,16.4540342 11.3388908,16.4540342 C16.0017384,16.4540342 17.7229674,16.1384733 18.7108244,15.1018776 C19.6401418,14.0912183 19.9710535,12.3776797 19.9710535,8.56501302 L19.8116955,5.12150931 C19.6466462,3.42699079 19.3352476,2.57886698 18.6278932,1.89068497" id="Fill-21"></path>
                    <path d="M48.7595107,10.3343521 C49.4320862,9.16911045 52.6110879,3.70319038 52.8505346,3.28636968 L53.0695506,3.28636968 C53.3171695,3.70319038 56.4626651,9.17501682 57.1270683,10.3343521 L48.7595107,10.3343521 Z M54.9303699,0.867290818 C54.8453786,0.716256596 54.6770305,0.617535903 54.4972412,0.617535903 L51.3443906,0.617535903 C51.1621496,0.617535903 50.9954359,0.716256596 50.9112618,0.864759519 L42.5110152,15.3302942 C42.4243895,15.4796409 42.4243895,15.663582 42.5110152,15.8146162 C42.6025443,15.9681818 42.7643547,16.0559335 42.9449612,16.0559335 L45.1931447,16.0559335 C45.3712996,16.0559335 45.5355616,15.9614316 45.6287252,15.8061786 C45.6287252,15.8061786 46.9943067,13.4200066 47.2353878,12.9989671 L58.6234056,12.9989671 C58.8669384,13.4200066 60.2382405,15.8061786 60.2382405,15.8061786 C60.3256835,15.9614316 60.4915799,16.0559335 60.6697348,16.0559335 L62.872971,16.0559335 C63.0470397,16.0559335 63.2145707,15.9681818 63.3060998,15.8146162 C63.3910911,15.663582 63.3910911,15.4796409 63.3085514,15.3302942 L54.9303699,0.867290818 Z" id="Fill-26"></path>
                    <path d="M40.7392649,9.88514058 L38.8033134,9.88514058 C38.5307725,9.88514058 38.3095919,10.1068666 38.2979944,10.3757313 L38.2772846,11.0513847 C38.2772846,12.7955131 38.0345658,12.8862986 36.8855864,13.0582672 C36.3595577,13.1403233 33.8437319,13.2590428 32.2706159,13.2590428 C30.3636581,13.2590428 28.3887721,13.1804784 27.466772,13.0818365 C26.4370811,12.9866864 26.1222922,12.7047277 25.9740101,11.7706849 C25.8895141,11.0644787 25.7594566,8.66302854 25.7594566,7.47932573 C25.7594566,4.36730469 26.162055,3.56420249 26.407259,3.35644344 C27.0467774,2.85974219 30.1764415,2.80038246 32.4818558,2.80038246 C35.9445334,2.80038246 37.0885424,3.07535767 37.4190707,3.19407713 C37.9442711,3.40532792 38.1637949,3.54674375 38.1853331,4.99494652 L38.1853331,5.50474183 C38.1853331,5.7858276 38.4098273,6.01017246 38.6889953,6.01017246 L40.5603323,6.01017246 C40.6986737,6.01017246 40.8254177,5.95517742 40.9223395,5.85740845 C41.018433,5.7622583 41.0739352,5.62520716 41.0681365,5.49863127 C41.0267169,2.88331149 40.938079,2.24694029 40.107202,1.42201466 C39.0220088,0.316876195 37.332918,0 32.5680085,0 L28.4136238,0.111735959 C26.043595,0.251405907 25.1249085,0.474877824 24.3089426,1.11386784 C23.1127449,2.06711523 22.717602,3.86798463 22.717602,8.26584212 C22.717602,12.0919258 23.0671834,13.7810592 24.0438573,14.728196 C25.1671565,15.8237322 26.7377873,16.0559335 32.8811406,16.0559335 C37.6634463,16.0559335 39.1562083,15.8150028 40.1709882,14.8617554 C41.0267169,14.0411945 41.1310942,13.2843579 41.2503827,10.4150135 C41.2503827,10.2762164 41.2048211,10.1452759 41.1103844,10.0483798 C41.010149,9.94624619 40.8800915,9.88514058 40.7392649,9.88514058" id="Fill-28"></path>
                    <path d="M95.1540029,13.3955374 L83.0882445,13.3955374 L83.0882445,9.4003025 L94.5927668,9.4003025 C94.8643854,9.4003025 95.0967339,9.18345448 95.0967339,8.91429294 L95.0967339,7.22254089 C95.0967339,6.95000428 94.8643854,6.73737509 94.5927668,6.73737509 L83.0882445,6.73737509 L83.0882445,3.28636968 L95.1270046,3.28636968 C95.4018958,3.28636968 95.6276992,3.06614659 95.6276992,2.79614128 L95.6276992,1.10438923 C95.6276992,0.840290287 95.4018958,0.617535903 95.1270046,0.617535903 L80.6052246,0.617535903 C80.3319697,0.617535903 80.1094388,0.840290287 80.1094388,1.10438923 L80.1094388,15.5673926 C80.1094388,15.8390855 80.3319697,16.0559335 80.6052246,16.0559335 L95.1540029,16.0559335 C95.4256215,16.0559335 95.6530612,15.8390855 95.6530612,15.5673926 L95.6530612,13.8815469 C95.6530612,13.6098541 95.4256215,13.3955374 95.1540029,13.3955374" id="Fill-30"></path>
                    <path d="M77.8141634,0.617535903 L60.8893561,0.617535903 C60.6063848,0.617535903 60.3809949,0.840302462 60.3809949,1.10357203 L60.3809949,2.79626035 C60.3809949,3.06543661 60.6063848,3.28651555 60.8893561,3.28651555 L67.8756204,3.28651555 L67.8756204,15.5682097 C67.8756204,15.8399174 68.0968974,16.0559335 68.3774009,16.0559335 L70.3738289,16.0559335 C70.6485743,16.0559335 70.8756094,15.8399174 70.8756094,15.5682097 L70.8756094,3.28651555 L77.8141634,3.28651555 C78.0913766,3.28651555 78.3159439,3.06543661 78.3159439,2.79626035 L78.3159439,1.10357203 C78.3159439,0.840302462 78.0913766,0.617535903 77.8141634,0.617535903" id="Fill-32"></path>
                </g>
                <g id="LL" transform="translate(0.000000, 0.877551)">
                    <path d="M13.8481056,15.9478022 L0.487496792,15.9478022 C0.218973969,15.9478022 0,16.1575857 0,16.4165875 L0,18.0311133 C0,18.2925357 0.218973969,18.4958643 0.487496792,18.4958643 L11.4226093,18.4958643 L11.4226093,30.2461584 C11.4226093,30.5019329 11.6455791,30.7092957 11.9180978,30.7092957 L13.8481056,30.7092957 C14.1166284,30.7092957 14.3356024,30.5019329 14.3356024,30.2461584 L14.3356024,16.4165875 C14.3356024,16.1575857 14.1166284,15.9478022 13.8481056,15.9478022" id="Fill-34"></path>
                    <path d="M29.3393677,12.2218739 L18.1804098,12.2218739 L18.1804098,0.465664371 C18.1804098,0.213059608 17.9594484,0 17.6814121,0 L15.7066206,0 C15.4342918,0 15.2108844,0.213059608 15.2108844,0.465664371 L15.2108844,14.2992051 C15.2108844,14.5590732 15.4342918,14.7664835 15.7066206,14.7664835 L29.3393677,14.7664835 C29.6116965,14.7664835 29.8367347,14.5590732 29.8367347,14.2992051 L29.8367347,12.6867312 C29.8367347,12.426863 29.6116965,12.2218739 29.3393677,12.2218739" id="Fill-24"></path>
                </g>
            </g>
        </g>
    </g>
</svg>